<svg version="1.1" id="Layer_1" xmlns="http://www.w3.org/2000/svg" xmlns:xlink="http://www.w3.org/1999/xlink" x="0px" y="0px"
	 width="100%" viewBox="0 0 128 128" enable-background="new 0 0 128 128" xml:space="preserve">
<path fill="#6D4C41" opacity="1.000000" stroke="none" 
	d="
M87.000000,129.000000 
	C58.000000,129.000000 29.500000,129.000000 1.000000,129.000000 
	C1.000000,86.333336 1.000000,43.666668 1.000000,1.000000 
	C43.666668,1.000000 86.333336,1.000000 129.000000,1.000000 
	C129.000000,43.666668 129.000000,86.333336 129.000000,129.000000 
	C115.166664,129.000000 101.333336,129.000000 87.000000,129.000000 
M65.067284,55.589058 
	C70.121399,55.676643 75.175522,55.764229 81.133667,55.945824 
	C87.110001,56.000927 93.086334,56.056030 99.778740,56.456627 
	C102.753342,56.552547 105.733833,56.810425 108.701019,56.702492 
	C112.235168,56.573933 114.207710,54.726612 114.030899,50.972801 
	C113.960709,49.482704 114.035156,47.986267 114.022850,46.492889 
	C113.968040,39.839737 112.065681,38.395576 104.390388,39.941174 
	C98.356247,40.023232 92.322105,40.105289 85.563103,39.727745 
	C80.431725,39.810143 75.300339,39.892536 69.246735,39.940868 
	C66.493507,39.941322 63.740280,39.941776 60.259972,39.577415 
	C49.160179,39.466782 38.060593,39.311817 26.960526,39.259079 
	C17.526167,39.214252 16.845411,39.966045 17.001156,49.484558 
	C17.012007,50.147732 16.752050,51.027092 17.079664,51.436638 
	C18.492790,53.203190 20.044222,56.246677 21.606064,56.284016 
	C32.670265,56.548531 43.749435,56.186653 55.722538,56.058746 
	C58.719330,55.657700 61.716122,55.256649 65.067284,55.589058 
M81.284042,81.999886 
	C69.474625,82.002205 57.664272,81.937881 45.857185,82.104774 
	C44.607880,82.122429 43.377762,83.497612 42.138741,84.242989 
	C43.321236,84.860336 44.498589,86.002785 45.687016,86.014427 
	C58.659420,86.141457 71.633881,86.130280 84.606606,86.019058 
	C85.682327,86.009834 86.749458,84.998421 87.820587,84.452644 
	C86.785522,83.646935 85.830620,82.685593 84.684601,82.095291 
	C84.022697,81.754349 83.052406,82.012085 81.284042,81.999886 
z"/>
<path fill="#16100D" opacity="1.000000" stroke="none" 
	d="
M54.823837,56.024460 
	C43.749435,56.186653 32.670265,56.548531 21.606064,56.284016 
	C20.044222,56.246677 18.492790,53.203190 17.079664,51.436638 
	C16.752050,51.027092 17.012007,50.147732 17.001156,49.484558 
	C16.845411,39.966045 17.526167,39.214252 26.960526,39.259079 
	C38.060593,39.311817 49.160179,39.466782 60.476852,40.084099 
	C58.737099,45.735340 56.780468,50.879898 54.823837,56.024460 
z"/>
<path fill="#CDCCCC" opacity="1.000000" stroke="none" 
	d="
M86.287964,40.187347 
	C92.322105,40.105289 98.356247,40.023232 104.851196,40.320541 
	C103.228897,45.836983 101.145782,50.974060 99.062668,56.111134 
	C93.086334,56.056030 87.110001,56.000927 80.771568,55.562813 
	C82.368965,50.182316 84.328468,45.184830 86.287964,40.187347 
z"/>
<path fill="#18120F" opacity="1.000000" stroke="none" 
	d="
M85.925537,39.957546 
	C84.328468,45.184830 82.368965,50.182316 80.319550,55.515808 
	C75.175522,55.764229 70.121399,55.676643 64.992035,54.866188 
	C66.667511,49.420521 68.418236,44.697727 70.168961,39.974934 
	C75.300339,39.892536 80.431725,39.810143 85.925537,39.957546 
z"/>
<path fill="#1C1512" opacity="1.000000" stroke="none" 
	d="
M99.420700,56.283882 
	C101.145782,50.974060 103.228897,45.836983 105.342476,40.307552 
	C112.065681,38.395576 113.968040,39.839737 114.022850,46.492889 
	C114.035156,47.986267 113.960709,49.482704 114.030899,50.972801 
	C114.207710,54.726612 112.235168,56.573933 108.701019,56.702492 
	C105.733833,56.810425 102.753342,56.552547 99.420700,56.283882 
z"/>
<path fill="#16100D" opacity="1.000000" stroke="none" 
	d="
M81.752480,82.000130 
	C83.052406,82.012085 84.022697,81.754349 84.684601,82.095291 
	C85.830620,82.685593 86.785522,83.646935 87.820587,84.452637 
	C86.749458,84.998421 85.682327,86.009834 84.606606,86.019058 
	C71.633881,86.130280 58.659420,86.141457 45.687016,86.014427 
	C44.498589,86.002785 43.321236,84.860336 42.138741,84.242989 
	C43.377762,83.497612 44.607880,82.122429 45.857185,82.104774 
	C57.664272,81.937881 69.474625,82.002205 81.752480,82.000130 
z"/>
<path fill="#C9C8C8" opacity="1.000000" stroke="none" 
	d="
M69.707848,39.957901 
	C68.418236,44.697727 66.667511,49.420521 64.814850,54.499458 
	C61.716122,55.256649 58.719330,55.657700 55.273186,56.041603 
	C56.780468,50.879898 58.737099,45.735340 60.840393,40.266506 
	C63.740280,39.941776 66.493507,39.941322 69.707848,39.957901 
z"/>
</svg>